<svg width="61" height="61" viewBox="0 0 61 61" fill="none" xmlns="http://www.w3.org/2000/svg">
<g clip-path="url(#clip0_493_1644)">
<path d="M33 13H23.8211C22.495 13 21.2232 13.5268 20.2855 14.4645L18.2145 16.5355C17.2768 17.4732 16.005 18 14.6789 18H10.5C7.73857 18 5.5 20.2386 5.5 23V48C5.5 50.7615 7.73857 53 10.5 53H45.5C48.2615 53 50.5 50.7615 50.5 48V30.5M43 13H58M50.5 20.5V5.5M28 45.5C33.5228 45.5 38 41.0228 38 35.5C38 29.9772 33.5228 25.5 28 25.5C22.4771 25.5 18 29.9772 18 35.5C18 41.0228 22.4771 45.5 28 45.5Z" stroke="black" stroke-width="5" stroke-linecap="round" stroke-linejoin="round"/>
</g>
<defs>
<clipPath id="clip0_493_1644">
<rect width="60" height="60" fill="white" transform="translate(0.5 0.5)"/>
</clipPath>
</defs>
</svg>
