<svg width="25" height="25" viewBox="0 0 25 25" fill="none" xmlns="http://www.w3.org/2000/svg">
<g clip-path="url(#clip0_83_108)">
<path d="M21.9403 11.5499L12.7503 20.7399C11.6244 21.8658 10.0975 22.4983 8.50529 22.4983C6.91311 22.4983 5.38613 21.8658 4.26029 20.7399C3.13445 19.6141 2.50195 18.0871 2.50195 16.4949C2.50195 14.9027 3.13445 13.3758 4.26029 12.2499L13.4503 3.05992C14.2009 2.30936 15.2188 1.8877 16.2803 1.8877C17.3417 1.8877 18.3597 2.30936 19.1103 3.05992C19.8609 3.81048 20.2825 4.82846 20.2825 5.88992C20.2825 6.95138 19.8609 7.96936 19.1103 8.71992L9.91029 17.9099C9.53501 18.2852 9.02602 18.496 8.49529 18.496C7.96456 18.496 7.45557 18.2852 7.08029 17.9099C6.70501 17.5346 6.49418 17.0256 6.49418 16.4949C6.49418 15.9642 6.70501 15.4552 7.08029 15.0799L15.5703 6.59992" stroke="#A1A1A1" stroke-width="2" stroke-linecap="round" stroke-linejoin="round"/>
</g>
<defs>
<clipPath id="clip0_83_108">
<rect width="24" height="24" fill="white" transform="translate(0.5 0.5)"/>
</clipPath>
</defs>
</svg>
